<?xml version="1.0" encoding="UTF-8" standalone="no"?>
<!-- Created with Inkscape (http://www.inkscape.org/) -->

<svg
   width="2446.2424"
   height="510.42746"
   viewBox="0 0 649.22894 135.46665"
   version="1.1"
   id="svg1037"
   inkscape:version="1.2.1 (9c6d41e410, 2022-07-14)"
   xml:space="preserve"
   sodipodi:docname="onyx_logo_and_text_blue.svg"
   xmlns:inkscape="http://www.inkscape.org/namespaces/inkscape"
   xmlns:sodipodi="http://sodipodi.sourceforge.net/DTD/sodipodi-0.dtd"
   xmlns="http://www.w3.org/2000/svg"
   xmlns:svg="http://www.w3.org/2000/svg"><sodipodi:namedview
     id="namedview1039"
     pagecolor="#ffffff"
     bordercolor="#ffffff"
     borderopacity="1"
     inkscape:showpageshadow="0"
     inkscape:pageopacity="0"
     inkscape:pagecheckerboard="1"
     inkscape:deskcolor="#505050"
     inkscape:document-units="px"
     showgrid="false"
     inkscape:zoom="0.914906"
     inkscape:cx="814.8378"
     inkscape:cy="420.80826"
     inkscape:window-width="3840"
     inkscape:window-height="2097"
     inkscape:window-x="-8"
     inkscape:window-y="-8"
     inkscape:window-maximized="1"
     inkscape:current-layer="layer1"
     showborder="false" /><defs
     id="defs1034" /><g
     inkscape:label="Ebene 1"
     inkscape:groupmode="layer"
     id="layer1"
     transform="translate(250,150)"><g
       aria-label="OnyxCeph³™"
       transform="matrix(0.37598103,0,0,0.37598096,-307.09529,-229.96981)"
       style="font-style:normal;font-weight:normal;font-size:40px;line-height:1.25;font-family:sans-serif;letter-spacing:0px;word-spacing:0px;fill:#41539c;fill-opacity:1;stroke:#9ca1d6;stroke-width:5.31942;stroke-dasharray:none;stroke-opacity:1"
       id="flowRoot3723"><g
         id="g3469"
         style="fill:#41539c;fill-opacity:1;stroke:#9ca1d6;stroke-width:5.31942;stroke-dasharray:none;stroke-opacity:1"><path
           d="M 564.95703,397.85995 Q 564.95703,364.2037 583.70703,345.4537 Q 602.45703,326.7037 635.92578,326.7037 Q 670.23828,326.7037 688.80078,345.17245 Q 707.36328,363.54745 707.36328,396.73495 Q 707.36328,420.8287 699.20703,436.29745 Q 691.14453,451.67245 675.76953,460.29745 Q 660.48828,468.8287 637.61328,468.8287 Q 614.36328,468.8287 599.08203,461.42245 Q 583.89453,454.0162 574.42578,437.98495 Q 564.95703,421.9537 564.95703,397.85995 Z M 607.42578,398.04745 Q 607.42578,418.85995 615.11328,427.9537 Q 622.89453,437.04745 636.20703,437.04745 Q 649.89453,437.04745 657.39453,428.1412 Q 664.89453,419.23495 664.89453,396.17245 Q 664.89453,376.7662 657.01953,367.85995 Q 649.23828,358.85995 635.83203,358.85995 Q 622.98828,358.85995 615.20703,367.9537 Q 607.42578,377.04745 607.42578,398.04745 Z"
           style="font-style:normal;font-variant:normal;font-weight:900;font-stretch:normal;font-size:192px;font-family:Arial;-inkscape-font-specification:'Arial, Heavy';font-variant-ligatures:normal;font-variant-caps:normal;font-variant-numeric:normal;font-feature-settings:normal;text-align:start;writing-mode:lr-tb;text-anchor:start;fill:#41539c;fill-opacity:1;stroke:#9ca1d6;stroke-width:5.31942;stroke-dasharray:none;stroke-opacity:1"
           id="path4546" /><path
           d="M 727.89453,366.92245 H 763.42578 V 383.1412 Q 771.39453,373.2037 779.55078,368.98495 Q 787.70703,364.67245 799.42578,364.67245 Q 815.26953,364.67245 824.17578,374.1412 Q 833.17578,383.5162 833.17578,403.2037 V 466.48495 H 794.83203 V 411.73495 Q 794.83203,402.35995 791.36328,398.5162 Q 787.89453,394.5787 781.61328,394.5787 Q 774.67578,394.5787 770.36328,399.8287 Q 766.05078,405.0787 766.05078,418.67245 V 466.48495 H 727.89453 Z"
           style="font-style:normal;font-variant:normal;font-weight:900;font-stretch:normal;font-size:192px;font-family:Arial;-inkscape-font-specification:'Arial, Heavy';font-variant-ligatures:normal;font-variant-caps:normal;font-variant-numeric:normal;font-feature-settings:normal;text-align:start;writing-mode:lr-tb;text-anchor:start;fill:#41539c;fill-opacity:1;stroke:#9ca1d6;stroke-width:5.31942;stroke-dasharray:none;stroke-opacity:1"
           id="path4548" /><path
           d="M 845.08203,366.92245 H 885.39453 L 905.92578,433.2037 L 924.95703,366.92245 H 962.55078 L 923.08203,473.3287 Q 916.33203,491.5162 909.30078,497.8912 Q 899.36328,506.8912 879.01953,506.8912 Q 870.76953,506.8912 853.51953,504.6412 L 850.51953,478.0162 Q 858.76953,480.6412 868.89453,480.6412 Q 875.64453,480.6412 879.76953,477.54745 Q 883.98828,474.4537 886.89453,466.48495 Z"
           style="font-style:normal;font-variant:normal;font-weight:900;font-stretch:normal;font-size:192px;font-family:Arial;-inkscape-font-specification:'Arial, Heavy';font-variant-ligatures:normal;font-variant-caps:normal;font-variant-numeric:normal;font-feature-settings:normal;text-align:start;writing-mode:lr-tb;text-anchor:start;fill:#41539c;fill-opacity:1;stroke:#9ca1d6;stroke-width:5.31942;stroke-dasharray:none;stroke-opacity:1"
           id="path4550" /><path
           d="M 964.89453,366.92245 H 1010.1758 L 1026.0195,394.67245 L 1044.3945,366.92245 H 1086.4883 L 1052.5508,414.35995 L 1088.9258,466.48495 H 1044.3945 L 1026.0195,434.42245 L 1004.3633,466.48495 H 963.01953 L 999.20703,414.35995 Z"
           style="font-style:normal;font-variant:normal;font-weight:900;font-stretch:normal;font-size:192px;font-family:Arial;-inkscape-font-specification:'Arial, Heavy';font-variant-ligatures:normal;font-variant-caps:normal;font-variant-numeric:normal;font-feature-settings:normal;text-align:start;writing-mode:lr-tb;text-anchor:start;fill:#41539c;fill-opacity:1;stroke:#9ca1d6;stroke-width:5.31942;stroke-dasharray:none;stroke-opacity:1"
           id="path4552" /><path
           d="M 1195.8008,410.3287 L 1233.0195,421.5787 Q 1229.2695,437.23495 1221.207,447.73495 Q 1213.1445,458.23495 1201.1445,463.5787 Q 1189.2383,468.92245 1170.7695,468.92245 Q 1148.3633,468.92245 1134.1133,462.4537 Q 1119.957,455.8912 1109.6445,439.48495 Q 1099.332,423.0787 1099.332,397.48495 Q 1099.332,363.35995 1117.4258,345.0787 Q 1135.6133,326.7037 1168.8008,326.7037 Q 1194.7695,326.7037 1209.582,337.2037 Q 1224.4883,347.7037 1231.707,369.4537 L 1194.207,377.79745 Q 1192.2383,371.5162 1190.082,368.60995 Q 1186.5195,363.73495 1181.3633,361.10995 Q 1176.207,358.48495 1169.832,358.48495 Q 1155.3945,358.48495 1147.707,370.10995 Q 1141.8945,378.73495 1141.8945,397.2037 Q 1141.8945,420.0787 1148.832,428.60995 Q 1155.7695,437.04745 1168.332,437.04745 Q 1180.5195,437.04745 1186.707,430.2037 Q 1192.9883,423.35995 1195.8008,410.3287 Z"
           style="font-style:normal;font-variant:normal;font-weight:900;font-stretch:normal;font-size:192px;font-family:Arial;-inkscape-font-specification:'Arial, Heavy';font-variant-ligatures:normal;font-variant-caps:normal;font-variant-numeric:normal;font-feature-settings:normal;text-align:start;writing-mode:lr-tb;text-anchor:start;fill:#41539c;fill-opacity:1;stroke:#9ca1d6;stroke-width:5.31942;stroke-dasharray:none;stroke-opacity:1"
           id="path4554" /><path
           d="M 1361.5508,426.17245 H 1285.0508 Q 1286.082,435.35995 1290.0195,439.85995 Q 1295.5508,446.3287 1304.457,446.3287 Q 1310.082,446.3287 1315.1445,443.5162 Q 1318.2383,441.73495 1321.8008,437.23495 L 1359.3945,440.7037 Q 1350.7695,455.7037 1338.582,462.2662 Q 1326.3945,468.73495 1303.6133,468.73495 Q 1283.832,468.73495 1272.4883,463.2037 Q 1261.1445,457.5787 1253.6445,445.48495 Q 1246.2383,433.29745 1246.2383,416.8912 Q 1246.2383,393.54745 1261.1445,379.10995 Q 1276.1445,364.67245 1302.4883,364.67245 Q 1323.8633,364.67245 1336.2383,371.1412 Q 1348.6133,377.60995 1355.082,389.8912 Q 1361.5508,402.17245 1361.5508,421.85995 Z M 1322.7383,407.8912 Q 1321.6133,396.8287 1316.7383,392.04745 Q 1311.957,387.2662 1304.082,387.2662 Q 1294.9883,387.2662 1289.5508,394.48495 Q 1286.082,398.98495 1285.1445,407.8912 Z"
           style="font-style:normal;font-variant:normal;font-weight:900;font-stretch:normal;font-size:192px;font-family:Arial;-inkscape-font-specification:'Arial, Heavy';font-variant-ligatures:normal;font-variant-caps:normal;font-variant-numeric:normal;font-feature-settings:normal;text-align:start;writing-mode:lr-tb;text-anchor:start;fill:#41539c;fill-opacity:1;stroke:#9ca1d6;stroke-width:5.31942;stroke-dasharray:none;stroke-opacity:1"
           id="path4556" /><path
           d="M 1379.457,504.35995 V 366.92245 H 1415.1758 V 381.6412 Q 1422.582,372.35995 1428.7695,369.0787 Q 1437.1133,364.67245 1447.2383,364.67245 Q 1467.207,364.67245 1478.082,379.9537 Q 1489.0508,395.23495 1489.0508,417.73495 Q 1489.0508,442.5787 1477.1445,455.7037 Q 1465.2383,468.73495 1447.0508,468.73495 Q 1438.2383,468.73495 1430.9258,465.73495 Q 1423.707,462.73495 1417.9883,456.8287 V 504.35995 Z M 1417.707,416.98495 Q 1417.707,428.79745 1422.6758,434.5162 Q 1427.6445,440.23495 1435.2383,440.23495 Q 1441.8945,440.23495 1446.3945,434.79745 Q 1450.8945,429.2662 1450.8945,416.1412 Q 1450.8945,404.04745 1446.207,398.42245 Q 1441.5195,392.7037 1434.7695,392.7037 Q 1427.457,392.7037 1422.582,398.42245 Q 1417.707,404.1412 1417.707,416.98495 Z"
           style="font-style:normal;font-variant:normal;font-weight:900;font-stretch:normal;font-size:192px;font-family:Arial;-inkscape-font-specification:'Arial, Heavy';font-variant-ligatures:normal;font-variant-caps:normal;font-variant-numeric:normal;font-feature-settings:normal;text-align:start;writing-mode:lr-tb;text-anchor:start;fill:#41539c;fill-opacity:1;stroke:#9ca1d6;stroke-width:5.31942;stroke-dasharray:none;stroke-opacity:1"
           id="path4558" /><path
           d="M 1507.5195,329.04745 H 1545.6758 V 379.67245 Q 1553.457,371.60995 1561.1445,368.1412 Q 1568.832,364.67245 1579.332,364.67245 Q 1594.8945,364.67245 1603.8008,374.1412 Q 1612.8008,383.60995 1612.8008,403.2037 V 466.48495 H 1574.457 V 411.73495 Q 1574.457,402.35995 1570.9883,398.5162 Q 1567.5195,394.5787 1561.2383,394.5787 Q 1554.3008,394.5787 1549.9883,399.8287 Q 1545.6758,405.0787 1545.6758,418.67245 V 466.48495 H 1507.5195 Z"
           style="font-style:normal;font-variant:normal;font-weight:900;font-stretch:normal;font-size:192px;font-family:Arial;-inkscape-font-specification:'Arial, Heavy';font-variant-ligatures:normal;font-variant-caps:normal;font-variant-numeric:normal;font-feature-settings:normal;text-align:start;writing-mode:lr-tb;text-anchor:start;fill:#41539c;fill-opacity:1;stroke:#9ca1d6;stroke-width:5.31942;stroke-dasharray:none;stroke-opacity:1"
           id="path4560" /><path
           d="M 1652.457,348.54745 L 1628.2695,344.79745 Q 1632.8633,335.98495 1639.6133,331.9537 Q 1648.6133,326.7037 1663.6133,326.7037 Q 1680.4883,326.7037 1689.1133,332.98495 Q 1695.207,337.48495 1695.207,344.60995 Q 1695.207,349.5787 1691.832,353.79745 Q 1689.4883,356.7037 1683.3945,359.60995 Q 1690.8945,362.04745 1694.457,366.8287 Q 1698.0195,371.60995 1698.0195,377.8912 Q 1698.0195,386.7037 1691.1758,391.85995 Q 1681.8945,398.8912 1662.7695,398.8912 Q 1644.8633,398.8912 1635.3008,391.5787 Q 1629.7695,387.35995 1627.1445,379.0162 L 1650.957,376.29745 Q 1652.457,380.79745 1655.1758,382.7662 Q 1657.8945,384.73495 1662.3945,384.73495 Q 1667.6445,384.73495 1670.5508,382.2037 Q 1673.5508,379.5787 1673.5508,376.0162 Q 1673.5508,371.23495 1668.3008,368.60995 Q 1665.3008,367.10995 1654.332,366.92245 L 1656.957,353.7037 Q 1665.0195,353.7037 1667.832,351.6412 Q 1670.6445,349.5787 1670.6445,346.48495 Q 1670.6445,344.04745 1668.6758,342.4537 Q 1666.8008,340.7662 1663.0508,340.7662 Q 1659.207,340.7662 1656.1133,342.92245 Q 1653.8633,344.5162 1652.457,348.54745 Z"
           style="font-style:normal;font-variant:normal;font-weight:900;font-stretch:normal;font-size:192px;font-family:Arial;-inkscape-font-specification:'Arial, Heavy';font-variant-ligatures:normal;font-variant-caps:normal;font-variant-numeric:normal;font-feature-settings:normal;text-align:start;writing-mode:lr-tb;text-anchor:start;fill:#41539c;fill-opacity:1;stroke:#9ca1d6;stroke-width:5.31942;stroke-dasharray:none;stroke-opacity:1"
           id="path4562" /><path
           d="M 1704.4883,329.04745 H 1779.582 V 347.23495 H 1752.8633 V 405.4537 H 1730.832 V 347.23495 H 1704.4883 Z M 1788.3008,329.04745 H 1821.7695 L 1832.3633,370.7662 L 1843.5195,329.04745 H 1875.957 V 405.4537 H 1855.2383 V 351.4537 L 1840.8945,405.4537 H 1823.5508 L 1809.3945,351.4537 V 405.4537 H 1788.3008 Z"
           style="font-style:normal;font-variant:normal;font-weight:900;font-stretch:normal;font-size:192px;font-family:Arial;-inkscape-font-specification:'Arial, Heavy';font-variant-ligatures:normal;font-variant-caps:normal;font-variant-numeric:normal;font-feature-settings:normal;text-align:start;writing-mode:lr-tb;text-anchor:start;fill:#41539c;fill-opacity:1;stroke:#9ca1d6;stroke-width:5.31942;stroke-dasharray:none;stroke-opacity:1"
           id="path4564" /></g></g><g
       id="g3482"><rect
         style="fill:#9ca1d5;stroke-width:0.264583"
         x="-250"
         y="-150"
         width="135.46666"
         height="135.46666"
         rx="21.166666"
         ry="21.166666"
         id="rect2150" /><rect
         style="fill:#42549c;stroke-width:0.264583"
         x="-245.76666"
         y="-145.76666"
         width="127"
         height="127"
         rx="16.933332"
         ry="16.933332"
         id="rect2152" /><path
         d="M -139.40417,-116.38469 V -106.92848 L -145.69649,-100.63616 C -138.77763,-92.403119 -134.61045,-81.780628 -134.61045,-70.184999 H -129.35 V -56.162082 H -235.18333 V -70.184999 H -229.33128 C -229.33128,-96.341442 -208.12731,-117.54541 -181.97086,-117.54541 C -169.81696,-117.54541 -158.73224,-112.96733 -150.34733,-105.44126 Z M -182.26667,-81.826665 C -179.90526,-81.826665 -177.70816,-81.123668 -175.87301,-79.915315 L -159.10795,-96.680638 C -165.29656,-102.09428 -173.39863,-105.37458 -182.26667,-105.37458 C -201.70137,-105.37458 -217.45625,-89.619703 -217.45625,-70.184999 H -193.90833 C -193.90833,-76.614638 -188.69631,-81.826665 -182.26667,-81.826665 Z M -170.625,-70.184999 H -147.07708 C -147.07708,-78.342897 -149.85309,-85.852565 -154.51188,-91.820507 L -171.56242,-74.769699 C -170.95917,-73.362645 -170.625,-71.81298 -170.625,-70.184999 Z"
         style="fill:#ffffff;stroke-width:0.264583"
         id="path2154" /></g></g></svg>
