<svg width="121" height="40" viewBox="0 0 121 40" fill="none" xmlns="http://www.w3.org/2000/svg">
<path d="M0 9.69697C0 4.34148 4.34148 0 9.69697 0H22.4242V9.69697H13.697C11.4878 9.69697 9.69697 11.4878 9.69697 13.697V40H0V9.69697Z" fill="#0C233F"/>
<path d="M95.152 0H85.455V10.303C85.455 20.0099 93.3239 27.8788 103.031 27.8788C112.738 27.8788 120.607 20.0099 120.607 10.303V0H110.91V14.1818C110.91 16.391 109.119 18.1818 106.91 18.1818H99.152C96.9428 18.1818 95.152 16.391 95.152 14.1818V0Z" fill="#0C233F"/>
<path fill-rule="evenodd" clip-rule="evenodd" d="M62.4255 23.636V17.5754C62.4255 7.86858 54.5565 -0.000353931 44.8497 -0.000354767C35.1429 -0.000355603 27.2739 7.86858 27.2739 17.5754L27.2739 23.636C27.2739 32.6734 34.5995 40 43.6369 40H55.152V31.5152H44.8487C40.4974 31.5152 36.97 27.9877 36.97 23.6364L62.4255 23.636ZM52.7285 16.3636V13.6966C52.7285 11.4875 50.9376 9.69662 48.7285 9.69662L40.9709 9.69661C38.7618 9.69661 36.9709 11.4875 36.9709 13.6966V16.3636H52.7285Z" fill="#0C233F"/>
<path fill-rule="evenodd" clip-rule="evenodd" d="M75.0766 -0.000177383H65.2305L73.4078 31.266C74.7534 36.411 79.4015 39.9998 84.7196 39.9998H94.9034C89.5854 39.9998 84.9372 36.411 83.5916 31.266L83.3072 30.1787L75.0766 -0.000177383ZM86.3816 31.3969L86.1016 30.326L86.1775 30.6044H120.446V39.9984H97.5221C92.2846 39.9984 87.7069 36.4639 86.3816 31.3969Z" fill="#FE7D00"/>
</svg>
