<svg xmlns="http://www.w3.org/2000/svg" xmlns:xlink="http://www.w3.org/1999/xlink" viewBox="0 0 100 100" width="100" height="100" preserveAspectRatio="xMidYMid meet" style="width: 100%; height: 100%; transform: translate3d(0px, 0px, 0px); content-visibility: visible;"><defs><clipPath id="__lottie_element_61"><rect width="100" height="100" x="0" y="0"></rect></clipPath></defs><g clip-path="url(#__lottie_element_61)"><g transform="matrix(1,0,0,1,63.84199905395508,50)" opacity="1" style="display: block;"><g opacity="1" transform="matrix(1,0,0,1,0,0)"><path fill="rgb(255,128,250)" fill-opacity="1" d=" M-15.008999824523926,41.30699920654297 C-15.008999824523926,41.30699920654297 -15.008999824523926,41.30699920654297 -15.008999824523926,41.30699920654297 C-24.340999603271484,37.91600036621094 -29.20199966430664,27.5049991607666 -25.81100082397461,18.17300033569336 C-25.81100082397461,18.17300033569336 -8.125,-30.503999710083008 -8.125,-30.503999710083008 C-4.734000205993652,-39.83599853515625 5.677000045776367,-44.698001861572266 15.008999824523926,-41.30699920654297 C15.008999824523926,-41.30699920654297 15.008999824523926,-41.30699920654297 15.008999824523926,-41.30699920654297 C24.340999603271484,-37.91600036621094 29.20199966430664,-27.5049991607666 25.81100082397461,-18.17300033569336 C25.81100082397461,-18.17300033569336 8.125,30.503999710083008 8.125,30.503999710083008 C4.734000205993652,39.83599853515625 -5.677000045776367,44.698001861572266 -15.008999824523926,41.30699920654297z"></path></g></g><g transform="matrix(1,0,0,1,28.453998565673828,69.24400329589844)" opacity="1" style="mix-blend-mode: multiply; display: block;"><g opacity="1" transform="matrix(1,0,0,1,0,0)" style="mix-blend-mode: multiply;"><path fill="rgb(254,125,0)" fill-opacity="1" d=" M-21.708999633789062,0 C-21.708999633789062,0 21.708999633789062,0 21.708999633789062,0"></path><path stroke-linecap="round" stroke-linejoin="miter" fill-opacity="0" stroke-miterlimit="10" stroke-dasharray=" 16" stroke-dashoffset="160" stroke="rgb(254,125,0)" stroke-opacity="1" stroke-width="8" d=" M-21.708999633789062,0 C-21.708999633789062,0 21.708999633789062,0 21.708999633789062,0"></path></g></g><g transform="matrix(1,0,0,1,33.20399856567383,48.74399948120117)" opacity="1" style="mix-blend-mode: multiply; display: block;"><g opacity="1" transform="matrix(1,0,0,1,0,0)" style="mix-blend-mode: multiply;"><path fill="rgb(254,125,0)" fill-opacity="1" d=" M-21.708999633789062,0 C-21.708999633789062,0 21.708999633789062,0 21.708999633789062,0"></path><path stroke-linecap="round" stroke-linejoin="miter" fill-opacity="0" stroke-miterlimit="10" stroke-dasharray=" 16" stroke-dashoffset="160" stroke="rgb(254,125,0)" stroke-opacity="1" stroke-width="8" d=" M-21.708999633789062,0 C-21.708999633789062,0 21.708999633789062,0 21.708999633789062,0"></path></g></g><g transform="matrix(1,0,0,1,42.70399856567383,28.243999481201172)" opacity="1" style="mix-blend-mode: multiply; display: block;"><g opacity="1" transform="matrix(1,0,0,1,0,0)" style="mix-blend-mode: multiply;"><path fill="rgb(254,125,0)" fill-opacity="1" d=" M-21.708999633789062,0 C-21.708999633789062,0 21.708999633789062,0 21.708999633789062,0"></path><path stroke-linecap="round" stroke-linejoin="miter" fill-opacity="0" stroke-miterlimit="10" stroke-dasharray=" 16" stroke-dashoffset="160" stroke="rgb(254,125,0)" stroke-opacity="1" stroke-width="8" d=" M-21.708999633789062,0 C-21.708999633789062,0 21.708999633789062,0 21.708999633789062,0"></path></g></g></g></svg>