<svg xmlns="http://www.w3.org/2000/svg" xmlns:xlink="http://www.w3.org/1999/xlink" viewBox="0 0 100 100" width="100" height="100" preserveAspectRatio="xMidYMid meet" style="width: 100%; height: 100%; transform: translate3d(0px, 0px, 0px); content-visibility: visible;"><defs><clipPath id="__lottie_element_74"><rect width="100" height="100" x="0" y="0"></rect></clipPath></defs><g clip-path="url(#__lottie_element_74)"><g transform="matrix(1,0,0,1,43.69900131225586,52.624000549316406)" opacity="1" style="mix-blend-mode: multiply; display: block;"><g opacity="1" transform="matrix(1,0,0,1,0,0)" style="mix-blend-mode: multiply;"><path fill="rgb(255,128,250)" fill-opacity="1" d=" M37.21799850463867,-25.325000762939453 C25.56800079345703,-25.325000762939453 9.928000450134277,-30.66699981689453 0.0020000000949949026,-37.78499984741211 C0.0020000000949949026,-37.78499984741211 0.0010000000474974513,-37.7859992980957 0,-37.7859992980957 C-0.0010000000474974513,-37.7859992980957 -0.0010000000474974513,-37.78799819946289 -0.0020000000949949026,-37.78799819946289 C-0.0020000000949949026,-37.78799819946289 -0.0020000000949949026,-37.78499984741211 -0.0020000000949949026,-37.78499984741211 C-9.928000450134277,-30.66699981689453 -25.56800079345703,-25.325000762939453 -37.21799850463867,-25.325000762939453 C-37.21799850463867,3.1549999713897705 -27.83300018310547,37.78499984741211 -0.0020000000949949026,37.78799819946289 C-0.0020000000949949026,37.78799819946289 -0.0020000000949949026,37.78799819946289 -0.0020000000949949026,37.78799819946289 C-0.0010000000474974513,37.78799819946289 -0.0010000000474974513,37.78799819946289 0,37.78799819946289 C0.0010000000474974513,37.78799819946289 0.0010000000474974513,37.78799819946289 0.0020000000949949026,37.78799819946289 C0.0020000000949949026,37.78799819946289 0.0020000000949949026,37.78799819946289 0.0020000000949949026,37.78799819946289 C27.83300018310547,37.78499984741211 37.21799850463867,3.1549999713897705 37.21799850463867,-25.325000762939453z"></path></g></g><g transform="matrix(1,0,0,1,93.82499694824219,50.44300079345703)" opacity="1" style="display: block;"><g opacity="1" transform="matrix(1,0,0,1,0,0)"><path fill="rgb(255,255,255)" fill-opacity="1" d=" M-8.21399974822998,45.632999420166016 C-8.21399974822998,45.632999420166016 -20.53499984741211,45.632999420166016 -20.53499984741211,45.632999420166016 C-20.53499984741211,45.632999420166016 8.21399974822998,-45.632999420166016 8.21399974822998,-45.632999420166016 C8.21399974822998,-45.632999420166016 20.53499984741211,-45.632999420166016 20.53499984741211,-45.632999420166016 C20.53499984741211,-45.632999420166016 -8.21399974822998,45.632999420166016 -8.21399974822998,45.632999420166016z"></path></g></g><g transform="matrix(1,0,0,1,0,0)" opacity="1" style="mix-blend-mode: multiply; display: block;"><g opacity="1" transform="matrix(1,0,0,1,75.60099792480469,27.506999969482422)"><path fill="rgb(254,125,0)" fill-opacity="1" d=" M17.91900062561035,0 C17.91900062561035,9.895999908447266 9.895999908447266,17.91900062561035 0,17.91900062561035 C-9.895999908447266,17.91900062561035 -17.91900062561035,9.895999908447266 -17.91900062561035,0 C-17.91900062561035,-9.895999908447266 -9.895999908447266,-17.91900062561035 0,-17.91900062561035 C9.895999908447266,-17.91900062561035 17.91900062561035,-9.895999908447266 17.91900062561035,0z"></path></g><g opacity="1" transform="matrix(1,0,0,1,75.60099792480469,27.506999969482422)"><path fill="rgb(254,125,0)" fill-opacity="1" d=" M0,18.41900062561035 C-10.156000137329102,18.41900062561035 -18.417999267578125,10.156000137329102 -18.417999267578125,0 C-18.417999267578125,-10.156000137329102 -10.156000137329102,-18.41900062561035 0,-18.41900062561035 C10.156000137329102,-18.41900062561035 18.417999267578125,-10.156000137329102 18.417999267578125,0 C18.417999267578125,10.156000137329102 10.156000137329102,18.41900062561035 0,18.41900062561035z M0,-17.41900062561035 C-9.604000091552734,-17.41900062561035 -17.417999267578125,-9.604000091552734 -17.417999267578125,0 C-17.417999267578125,9.604999542236328 -9.604000091552734,17.41900062561035 0,17.41900062561035 C9.604000091552734,17.41900062561035 17.417999267578125,9.604999542236328 17.417999267578125,0 C17.417999267578125,-9.604000091552734 9.604000091552734,-17.41900062561035 0,-17.41900062561035z"></path></g></g><g transform="matrix(1,0,0,1,76.052001953125,27.80299949645996)" opacity="1" style="display: block;"><g opacity="1" transform="matrix(1,0,0,1,0,0)"><path fill="rgb(255,255,255)" fill-opacity="1" d=" M-3.430999994277954,8.13599967956543 C-3.8289999961853027,8.13599967956543 -4.210000038146973,7.978000164031982 -4.491000175476074,7.697000026702881 C-4.491000175476074,7.697000026702881 -10.902000427246094,1.2860000133514404 -10.902000427246094,1.2860000133514404 C-11.48799991607666,0.7009999752044678 -11.48799991607666,-0.25 -10.902000427246094,-0.8349999785423279 C-10.315999984741211,-1.4210000038146973 -9.366999626159668,-1.4210000038146973 -8.781000137329102,-0.8349999785423279 C-8.781000137329102,-0.8349999785423279 -3.430999994277954,4.514999866485596 -3.430999994277954,4.514999866485596 C-3.430999994277954,4.514999866485596 8.781000137329102,-7.697000026702881 8.781000137329102,-7.697000026702881 C9.366999626159668,-8.282999992370605 10.315999984741211,-8.282999992370605 10.902000427246094,-7.697000026702881 C11.48799991607666,-7.111999988555908 11.48799991607666,-6.1620001792907715 10.902000427246094,-5.576000213623047 C10.902000427246094,-5.576000213623047 -2.369999885559082,7.697000026702881 -2.369999885559082,7.697000026702881 C-2.6510000228881836,7.978000164031982 -3.0329999923706055,8.13599967956543 -3.430999994277954,8.13599967956543z"></path></g></g></g></svg>