<svg xmlns="http://www.w3.org/2000/svg" xmlns:xlink="http://www.w3.org/1999/xlink" viewBox="0 0 100 100" width="100" height="100" preserveAspectRatio="xMidYMid meet" style="width: 100%; height: 100%; transform: translate3d(0px, 0px, 0px); content-visibility: visible;"><defs><clipPath id="__lottie_element_87"><rect width="100" height="100" x="0" y="0"></rect></clipPath></defs><g clip-path="url(#__lottie_element_87)"><g transform="matrix(1.2002400159835815,0,0,1.2002400159835815,50,50)" opacity="1" style="display: block;"><g opacity="1" transform="matrix(1,0,0,1,0,0)"><path fill="rgb(255,128,250)" fill-opacity="1" d=" M31.211999893188477,0 C31.211999893188477,17.238000869750977 17.238000869750977,31.211999893188477 0,31.211999893188477 C-17.238000869750977,31.211999893188477 -31.211999893188477,17.238000869750977 -31.211999893188477,0 C-31.211999893188477,-17.238000869750977 -17.238000869750977,-31.211999893188477 0,-31.211999893188477 C17.238000869750977,-31.211999893188477 31.211999893188477,-17.238000869750977 31.211999893188477,0z"></path></g></g><g transform="matrix(1.2899999618530273,0,0,1.2899999618530273,-14.5,-14.5)" opacity="1" style="display: block;"><g opacity="1" transform="matrix(1,0,0,1,0,0)" style="mix-blend-mode: multiply;"><g opacity="1" transform="matrix(1,0,0,1,50,50)"><path fill="rgb(254,125,0)" fill-opacity="1" d=" M8.54800033569336,0 C8.54800033569336,4.7210001945495605 4.7210001945495605,8.54800033569336 0,8.54800033569336 C-4.7210001945495605,8.54800033569336 -8.54800033569336,4.7210001945495605 -8.54800033569336,0 C-8.54800033569336,-4.7210001945495605 -4.7210001945495605,-8.54800033569336 0,-8.54800033569336 C4.7210001945495605,-8.54800033569336 8.54800033569336,-4.7210001945495605 8.54800033569336,0z"></path></g><g opacity="1" transform="matrix(1,0,0,1,50,50)"><path fill="rgb(254,125,0)" fill-opacity="1" d=" M0,8.9399995803833 C-4.929999828338623,8.9399995803833 -8.9399995803833,4.929999828338623 -8.9399995803833,0 C-8.9399995803833,-4.929999828338623 -4.929999828338623,-8.9399995803833 0,-8.9399995803833 C4.929999828338623,-8.9399995803833 8.9399995803833,-4.929999828338623 8.9399995803833,0 C8.9399995803833,4.929999828338623 4.929999828338623,8.9399995803833 0,8.9399995803833z M0,-8.156000137329102 C-4.497000217437744,-8.156000137329102 -8.156000137329102,-4.497000217437744 -8.156000137329102,0 C-8.156000137329102,4.497000217437744 -4.497000217437744,8.156000137329102 0,8.156000137329102 C4.497000217437744,8.156000137329102 8.156000137329102,4.497000217437744 8.156000137329102,0 C8.156000137329102,-4.497000217437744 4.497000217437744,-8.156000137329102 0,-8.156000137329102z"></path></g></g><g opacity="1" transform="matrix(1,0,0,1,0,0)" style="mix-blend-mode: multiply;"><g opacity="1" transform="matrix(1,0,0,1,24.451000213623047,50)"><path fill="rgb(254,125,0)" fill-opacity="1" d=" M6.953000068664551,0 C6.953000068664551,0 -6.953000068664551,0 -6.953000068664551,0"></path></g><g opacity="1" transform="matrix(1,0,0,1,24.451000213623047,50)"><path fill="rgb(254,125,0)" fill-opacity="1" d=" M6.953000068664551,2.74399995803833 C6.953000068664551,2.74399995803833 -6.953000068664551,2.74399995803833 -6.953000068664551,2.74399995803833 C-8.468999862670898,2.74399995803833 -9.697999954223633,1.5160000324249268 -9.697999954223633,0 C-9.697999954223633,-1.5160000324249268 -8.468999862670898,-2.74399995803833 -6.953000068664551,-2.74399995803833 C-6.953000068664551,-2.74399995803833 6.953000068664551,-2.74399995803833 6.953000068664551,-2.74399995803833 C8.468999862670898,-2.74399995803833 9.697999954223633,-1.5160000324249268 9.697999954223633,0 C9.697999954223633,1.5160000324249268 8.468999862670898,2.74399995803833 6.953000068664551,2.74399995803833z"></path></g></g><g opacity="1" transform="matrix(1,0,0,1,0,0)" style="mix-blend-mode: multiply;"><g opacity="1" transform="matrix(1,0,0,1,75.54900360107422,50)"><path fill="rgb(254,125,0)" fill-opacity="1" d=" M6.953000068664551,0 C6.953000068664551,0 -6.953000068664551,0 -6.953000068664551,0"></path></g><g opacity="1" transform="matrix(1,0,0,1,75.54900360107422,50)"><path fill="rgb(254,125,0)" fill-opacity="1" d=" M6.953000068664551,2.74399995803833 C6.953000068664551,2.74399995803833 -6.953000068664551,2.74399995803833 -6.953000068664551,2.74399995803833 C-8.468999862670898,2.74399995803833 -9.697999954223633,1.5160000324249268 -9.697999954223633,0 C-9.697999954223633,-1.5160000324249268 -8.468999862670898,-2.74399995803833 -6.953000068664551,-2.74399995803833 C-6.953000068664551,-2.74399995803833 6.953000068664551,-2.74399995803833 6.953000068664551,-2.74399995803833 C8.468999862670898,-2.74399995803833 9.697999954223633,-1.5160000324249268 9.697999954223633,0 C9.697999954223633,1.5160000324249268 8.468999862670898,2.74399995803833 6.953000068664551,2.74399995803833z"></path></g></g><g opacity="1" transform="matrix(1,0,0,1,0,0)" style="mix-blend-mode: multiply;"><g opacity="1" transform="matrix(1,0,0,1,50,75.54900360107422)"><path fill="rgb(254,125,0)" fill-opacity="1" d=" M0,-6.953000068664551 C0,-6.953000068664551 0,6.953000068664551 0,6.953000068664551"></path></g><g opacity="1" transform="matrix(1,0,0,1,50,75.54900360107422)"><path fill="rgb(254,125,0)" fill-opacity="1" d=" M0,9.697999954223633 C-1.5160000324249268,9.697999954223633 -2.74399995803833,8.468999862670898 -2.74399995803833,6.953000068664551 C-2.74399995803833,6.953000068664551 -2.74399995803833,-6.953000068664551 -2.74399995803833,-6.953000068664551 C-2.74399995803833,-8.468999862670898 -1.5160000324249268,-9.697999954223633 0,-9.697999954223633 C1.5160000324249268,-9.697999954223633 2.74399995803833,-8.468999862670898 2.74399995803833,-6.953000068664551 C2.74399995803833,-6.953000068664551 2.74399995803833,6.953000068664551 2.74399995803833,6.953000068664551 C2.74399995803833,8.468999862670898 1.5160000324249268,9.697999954223633 0,9.697999954223633z"></path></g></g><g opacity="1" transform="matrix(1,0,0,1,0,0)" style="mix-blend-mode: multiply;"><g opacity="1" transform="matrix(1,0,0,1,50,24.451000213623047)"><path fill="rgb(254,125,0)" fill-opacity="1" d=" M0,-6.953000068664551 C0,-6.953000068664551 0,6.953000068664551 0,6.953000068664551"></path></g><g opacity="1" transform="matrix(1,0,0,1,50,24.451000213623047)"><path fill="rgb(254,125,0)" fill-opacity="1" d=" M0,9.697999954223633 C-1.5160000324249268,9.697999954223633 -2.74399995803833,8.468999862670898 -2.74399995803833,6.953000068664551 C-2.74399995803833,6.953000068664551 -2.74399995803833,-6.953000068664551 -2.74399995803833,-6.953000068664551 C-2.74399995803833,-8.468999862670898 -1.5160000324249268,-9.697999954223633 0,-9.697999954223633 C1.5160000324249268,-9.697999954223633 2.74399995803833,-8.468999862670898 2.74399995803833,-6.953000068664551 C2.74399995803833,-6.953000068664551 2.74399995803833,6.953000068664551 2.74399995803833,6.953000068664551 C2.74399995803833,8.468999862670898 1.5160000324249268,9.697999954223633 0,9.697999954223633z"></path></g></g></g></g></svg>