<svg xmlns="http://www.w3.org/2000/svg" xmlns:xlink="http://www.w3.org/1999/xlink" viewBox="0 0 100 100" width="100" height="100" preserveAspectRatio="xMidYMid meet" style="width: 100%; height: 100%; transform: translate3d(0px, 0px, 0px); content-visibility: visible;"><defs><clipPath id="__lottie_element_94"><rect width="100" height="100" x="0" y="0"></rect></clipPath></defs><g clip-path="url(#__lottie_element_94)"><g transform="matrix(1.1400070190429688,0,0,1.1399999856948853,-6.909626007080078,-12.709617614746094)" opacity="1" style="display: block;"><g opacity="1" transform="matrix(1,0,0,1,49.35200119018555,53.73500061035156)" style="mix-blend-mode: multiply;"><path fill="rgb(255,128,250)" fill-opacity="1" d=" M25.232999801635742,-12.616000175476074 C25.232999801635742,1.3200000524520874 0,37.8489990234375 0,37.8489990234375 C0,37.8489990234375 -25.232999801635742,1.3200000524520874 -25.232999801635742,-12.616000175476074 C-25.232999801635742,-26.552000045776367 -13.935999870300293,-37.8489990234375 0,-37.8489990234375 C13.935999870300293,-37.8489990234375 25.232999801635742,-26.552000045776367 25.232999801635742,-12.616000175476074z"></path></g><g opacity="1" transform="matrix(1,0,0,1,49.35200119018555,40.52399826049805)"><path fill="rgb(255,255,255)" fill-opacity="1" d=" M9.26099967956543,0 C9.26099967956543,5.114999771118164 5.114999771118164,9.26099967956543 0,9.26099967956543 C-5.114999771118164,9.26099967956543 -9.26099967956543,5.114999771118164 -9.26099967956543,0 C-9.26099967956543,-5.114999771118164 -5.114999771118164,-9.26099967956543 0,-9.26099967956543 C5.114999771118164,-9.26099967956543 9.26099967956543,-5.114999771118164 9.26099967956543,0z"></path></g></g><g transform="matrix(1,0,0,1,50,88.21600341796875)" opacity="1" style="mix-blend-mode: multiply; display: block;"><g opacity="1" transform="matrix(1,0,0,1,0,0)" style="mix-blend-mode: multiply;"><path fill="rgb(254,125,0)" fill-opacity="1" d=" M40.14400100708008,0 C40.14400100708008,4.585999965667725 22.17099952697754,8.303000450134277 0,8.303000450134277 C-22.17099952697754,8.303000450134277 -40.14400100708008,4.585999965667725 -40.14400100708008,0 C-40.14400100708008,-4.585999965667725 -22.17099952697754,-8.303000450134277 0,-8.303000450134277 C22.17099952697754,-8.303000450134277 40.14400100708008,-4.585999965667725 40.14400100708008,0z"></path></g></g></g></svg>