<svg xmlns="http://www.w3.org/2000/svg" xmlns:xlink="http://www.w3.org/1999/xlink" viewBox="0 0 100 100" width="100" height="100" preserveAspectRatio="xMidYMid meet" style="width: 100%; height: 100%; transform: translate3d(0px, 0px, 0px); content-visibility: visible;"><defs><clipPath id="__lottie_element_101"><rect width="100" height="100" x="0" y="0"></rect></clipPath></defs><g clip-path="url(#__lottie_element_101)"><g transform="matrix(1,0,0,1,60.762001037597656,56.619998931884766)" opacity="1" style="display: block;"><g opacity="1" transform="matrix(1,0,0,1,0,0)"><path fill="rgb(255,128,250)" fill-opacity="1" d=" M33.895999908447266,-21.003999710083008 C33.895999908447266,-30.665000915527344 25.795000076293945,-38.49599838256836 15.800999641418457,-38.49599838256836 C10.96500015258789,-38.49599838256836 6.578999996185303,-36.65800094604492 3.3369998931884766,-33.667999267578125 C1.5399999618530273,-32.0099983215332 -1.2300000190734863,-32.01900100708008 -2.984999895095825,-33.72100067138672 C-6.261000156402588,-36.89899826049805 -10.793000221252441,-38.86600112915039 -15.800999641418457,-38.86600112915039 C-25.795000076293945,-38.86600112915039 -33.895999908447266,-31.034000396728516 -33.895999908447266,-21.37299919128418 C-33.895999908447266,-21.37299919128418 -33.895999908447266,-21.371999740600586 -33.895999908447266,-21.371999740600586 C-33.895999908447266,9.670999526977539 -21.152999877929688,38.49599838256836 -16.055999755859375,38.49599838256836 C-11.60200023651123,38.54999923706055 -9.678999900817871,26.570999145507812 -6.09499979019165,10.61299991607666 C-4.646999835968018,4.166999816894531 4.556000232696533,4.165999889373779 6.008999824523926,10.611000061035156 C9.64799976348877,26.753999710083008 11.567000389099121,38.91999816894531 16.055999755859375,38.86600112915039 C21.152999877929688,38.86600112915039 33.895999908447266,10.038999557495117 33.895999908447266,-21.003999710083008 C33.895999908447266,-21.003999710083008 33.895999908447266,-21.003999710083008 33.895999908447266,-21.003999710083008 C33.895999908447266,-21.003999710083008 33.895999908447266,-21.003999710083008 33.895999908447266,-21.003999710083008z"></path></g></g><g transform="matrix(1,0,0,1,0,0)" opacity="1" style="mix-blend-mode: multiply; display: block;"><g opacity="1" transform="matrix(1,0,0,1,23.520999908447266,22.694000244140625)" style="mix-blend-mode: multiply;"><path fill="rgb(254,125,0)" fill-opacity="1" d=" M18.18000030517578,0 C18.18000030517578,10.039999961853027 10.039999961853027,18.18000030517578 0,18.18000030517578 C-10.039999961853027,18.18000030517578 -18.18000030517578,10.039999961853027 -18.18000030517578,0 C-18.18000030517578,-10.039999961853027 -10.039999961853027,-18.18000030517578 0,-18.18000030517578 C10.039999961853027,-18.18000030517578 18.18000030517578,-10.039999961853027 18.18000030517578,0z"></path></g><g opacity="1" transform="matrix(1,0,0,1,0,0)"><g opacity="1" transform="matrix(1,0,0,1,23.520999908447266,22.694000244140625)"><path fill="rgb(255,255,255)" fill-opacity="1" d=" M9.222999572753906,1.5 C9.222999572753906,1.5 -9.222999572753906,1.5 -9.222999572753906,1.5 C-10.052000045776367,1.5 -10.722999572753906,0.8289999961853027 -10.722999572753906,0 C-10.722999572753906,-0.8289999961853027 -10.052000045776367,-1.5 -9.222999572753906,-1.5 C-9.222999572753906,-1.5 9.222999572753906,-1.5 9.222999572753906,-1.5 C10.052000045776367,-1.5 10.722999572753906,-0.8289999961853027 10.722999572753906,0 C10.722999572753906,0.8289999961853027 10.052000045776367,1.5 9.222999572753906,1.5z"></path></g><g opacity="1" transform="matrix(1,0,0,1,23.520999908447266,22.694000244140625)"><path fill="rgb(255,255,255)" fill-opacity="1" d=" M0,10.722999572753906 C-0.8289999961853027,10.722999572753906 -1.5,10.052000045776367 -1.5,9.222999572753906 C-1.5,9.222999572753906 -1.5,-9.222999572753906 -1.5,-9.222999572753906 C-1.5,-10.052000045776367 -0.8289999961853027,-10.722999572753906 0,-10.722999572753906 C0.8289999961853027,-10.722999572753906 1.5,-10.052000045776367 1.5,-9.222999572753906 C1.5,-9.222999572753906 1.5,9.222999572753906 1.5,9.222999572753906 C1.5,10.052000045776367 0.8289999961853027,10.722999572753906 0,10.722999572753906z"></path></g></g></g></g></svg>