<svg xmlns="http://www.w3.org/2000/svg" xmlns:xlink="http://www.w3.org/1999/xlink" viewBox="0 0 100 100" width="100" height="100" preserveAspectRatio="xMidYMid meet" style="width: 100%; height: 100%; transform: translate3d(0px, 0px, 0px); content-visibility: visible;"><defs><clipPath id="__lottie_element_130"><rect width="100" height="100" x="0" y="0"></rect></clipPath></defs><g clip-path="url(#__lottie_element_130)"><g transform="matrix(1,0,0,1,22.31100082397461,83.53199768066406)" opacity="1" style="mix-blend-mode: multiply; display: block;"><g opacity="1" transform="matrix(1,0,0,1,0,0)" style="mix-blend-mode: multiply;"><path fill="rgb(255,128,250)" fill-opacity="1" d=" M10.531000137329102,-8.151000022888184 C15.032999992370605,-2.3350000381469727 13.967000007629395,6.0289998054504395 8.151000022888184,10.531000137329102 C2.3350000381469727,15.032999992370605 -6.0289998054504395,13.967000007629395 -10.531000137329102,8.151000022888184 C-15.032999992370605,2.3350000381469727 -13.967000007629395,-6.0289998054504395 -8.151000022888184,-10.531000137329102 C-2.3350000381469727,-15.032999992370605 6.0289998054504395,-13.967000007629395 10.531000137329102,-8.151000022888184z"></path></g></g><g transform="matrix(1,0,0,1,0,0)" opacity="1" style="mix-blend-mode: multiply; display: block;"><g opacity="1" transform="matrix(1,0,0,1,43.57699966430664,67.4749984741211)"><path fill="rgb(255,255,255)" fill-opacity="1" d=" M21.194000244140625,-16.01799964904785 C21.194000244140625,-16.01799964904785 -21.194000244140625,16.01799964904785 -21.194000244140625,16.01799964904785"></path></g><g opacity="1" transform="matrix(1,0,0,1,43.57699966430664,67.4749984741211)"><path fill="rgb(254,125,0)" fill-opacity="1" d=" M-21.19099998474121,19.51799964904785 C-22.250999450683594,19.51799964904785 -23.29800033569336,19.038999557495117 -23.986000061035156,18.128000259399414 C-25.152000427246094,16.586000442504883 -24.84600067138672,14.390999794006348 -23.304000854492188,13.22599983215332 C-23.304000854492188,13.22599983215332 19.08300018310547,-18.809999465942383 19.08300018310547,-18.809999465942383 C20.625999450683594,-19.976999282836914 22.82200050354004,-19.670000076293945 23.986000061035156,-18.128000259399414 C25.152000427246094,-16.586000442504883 24.84600067138672,-14.390999794006348 23.304000854492188,-13.225000381469727 C23.304000854492188,-13.225000381469727 -19.08300018310547,18.809999465942383 -19.08300018310547,18.809999465942383 C-19.71500015258789,19.288000106811523 -20.457000732421875,19.51799964904785 -21.19099998474121,19.51799964904785z"></path></g></g><g transform="matrix(1,0,0,1,25.868999481201172,16.466999053955078)" opacity="1" style="mix-blend-mode: multiply; display: block;"><g opacity="1" transform="matrix(1,0,0,1,0,0)" style="mix-blend-mode: multiply;"><path fill="rgb(255,128,250)" fill-opacity="1" d=" M9.906999588012695,8.89799976348877 C4.993000030517578,14.369999885559082 -3.4260001182556152,14.821000099182129 -8.89799976348877,9.906999588012695 C-14.369999885559082,4.993000030517578 -14.821000099182129,-3.4260001182556152 -9.906999588012695,-8.89799976348877 C-4.993000030517578,-14.369999885559082 3.4260001182556152,-14.821000099182129 8.89799976348877,-9.906999588012695 C14.369999885559082,-4.993000030517578 14.821000099182129,3.4260001182556152 9.906999588012695,8.89799976348877z"></path></g></g><g transform="matrix(1,0,0,1,0,0)" opacity="1" style="mix-blend-mode: multiply; display: block;"><g opacity="1" transform="matrix(1,0,0,1,45.47999954223633,34.50699996948242)"><path fill="rgb(255,255,255)" fill-opacity="1" d=" M19.55900001525879,17.976999282836914 C19.55900001525879,17.976999282836914 -19.55900001525879,-17.976999282836914 -19.55900001525879,-17.976999282836914"></path></g><g opacity="1" transform="matrix(1,0,0,1,45.47999954223633,34.507999420166016)"><path fill="rgb(254,125,0)" fill-opacity="1" d=" M19.55900001525879,21.476999282836914 C18.711999893188477,21.476999282836914 17.863000869750977,21.172000885009766 17.19099998474121,20.554000854492188 C17.19099998474121,20.554000854492188 -21.92799949645996,-15.399999618530273 -21.92799949645996,-15.399999618530273 C-23.351999282836914,-16.70800018310547 -23.44499969482422,-18.92300033569336 -22.136999130249023,-20.34600067138672 C-20.82699966430664,-21.76799964904785 -18.613000869750977,-21.861000061035156 -17.19099998474121,-20.554000854492188 C-17.19099998474121,-20.554000854492188 21.92799949645996,15.399999618530273 21.92799949645996,15.399999618530273 C23.351999282836914,16.70800018310547 23.44499969482422,18.922000885009766 22.136999130249023,20.344999313354492 C21.44700050354004,21.094999313354492 20.503999710083008,21.476999282836914 19.55900001525879,21.476999282836914z"></path></g></g><g transform="matrix(-1,0,0,1,130.0780029296875,0)" opacity="1" style="display: block;"><g opacity="1" transform="matrix(1,0,0,1,65.03900146484375,52.48500061035156)"><path fill="rgb(254,125,0)" fill-opacity="1" d=" M25.966999053955078,0 C25.966999053955078,14.340999603271484 14.340999603271484,25.966999053955078 0,25.966999053955078 C-14.340999603271484,25.966999053955078 -25.966999053955078,14.340999603271484 -25.966999053955078,0 C-25.966999053955078,-14.340999603271484 -14.340999603271484,-25.966999053955078 0,-25.966999053955078 C14.340999603271484,-25.966999053955078 25.966999053955078,-14.340999603271484 25.966999053955078,0z"></path></g><g opacity="1" transform="matrix(1,0,0,1,65.40699768066406,51.01300048828125)"><path fill="rgb(255,255,255)" fill-opacity="1" d=" M-10.777999877929688,-12.13599967956543 C-10.777999877929688,-12.13599967956543 -16.75200080871582,-12.13599967956543 -16.75200080871582,-12.13599967956543 C-16.75200080871582,-12.13599967956543 -11.789999961853027,6.835999965667725 -11.789999961853027,6.835999965667725 C-10.972999572753906,9.958000183105469 -8.154000282287598,12.13599967956543 -4.927000045776367,12.13599967956543 C-4.927000045776367,12.13599967956543 1.253000020980835,12.13599967956543 1.253000020980835,12.13599967956543 C-1.9739999771118164,12.13599967956543 -4.794000148773193,9.958000183105469 -5.611000061035156,6.835999965667725 C-5.611000061035156,6.835999965667725 -5.783999919891357,6.177000045776367 -5.783999919891357,6.177000045776367 C-5.783999919891357,6.177000045776367 -10.777999877929688,-12.13599967956543 -10.777999877929688,-12.13599967956543z M-3.9179999828338623,6.915999889373779 C-3.9179999828338623,6.915999889373779 -4.0879998207092285,6.265999794006348 -4.0879998207092285,6.265999794006348 C-4.0879998207092285,6.265999794006348 -4.041999816894531,6.434999942779541 -4.041999816894531,6.434999942779541 C-4.041999816894531,6.434999942779541 16.75200080871582,6.434999942779541 16.75200080871582,6.434999942779541 C16.75200080871582,6.434999942779541 16.75200080871582,12.135000228881836 16.75200080871582,12.135000228881836 C16.75200080871582,12.135000228881836 2.8420000076293945,12.135000228881836 2.8420000076293945,12.135000228881836 C-0.335999995470047,12.135000228881836 -3.114000082015991,9.991000175476074 -3.9179999828338623,6.915999889373779z"></path></g></g></g></svg>