<svg width="97" height="38" viewBox="0 0 97 38" fill="none" xmlns="http://www.w3.org/2000/svg">
<g clip-path="url(#clip0_539_8028)">
<path d="M70.719 9.37598H67.4238V28.5265H70.719V9.37598Z" fill="#05142D"/>
<path d="M65.274 18.9468C65.274 24.8522 60.7175 28.5176 53.5853 28.5176H43.8418V9.37598H53.5853C60.7175 9.37598 65.274 13.0414 65.274 18.9468ZM61.8988 18.9468C61.8988 14.5111 58.3905 12.2446 53.3366 12.2446H47.137V25.649H53.3366C58.3905 25.649 61.8988 23.3825 61.8988 18.9468Z" fill="#05142D"/>
<path d="M90.9339 23.8961H78.6147L76.1721 28.5177H72.6016L83.0023 9.36719H86.6262L97.0003 28.5177H93.4031L90.9339 23.8961V23.8961ZM89.4773 21.1072L84.7876 12.2446L80.0979 21.1072H89.4862H89.4773Z" fill="#05142D"/>
<path d="M38.1209 15.0247H24.8602L34.7103 5.20596L32.8983 3.39981L23.0482 13.2185V0H20.4902V10.6333C20.4902 14.4669 23.6078 17.5834 27.4626 17.5834H38.1298V15.0336L38.1209 15.0247Z" fill="#004AC6"/>
<path d="M0 22.9752H13.2608L3.41068 32.794L5.2226 34.6001L15.0727 24.7814V37.9999H17.6307V27.3666C17.6307 23.533 14.5131 20.4165 10.6584 20.4165H0V22.9664V22.9752Z" fill="#004AC6"/>
<path d="M23.0483 38.0001V24.7815L32.8984 34.6003L34.7104 32.7941L24.8603 22.9754H38.121V20.4255H27.4538C23.6079 20.4255 20.4814 23.5332 20.4814 27.3757V38.0089H23.0395L23.0483 38.0001Z" fill="#004AC6"/>
<path d="M15.0727 0V13.2185L5.2226 3.39981L3.41068 5.20596L13.2608 15.0247H0V17.5746H10.6672C14.5131 17.5746 17.6396 14.4669 17.6396 10.6244V0H15.0816H15.0727Z" fill="#004AC6"/>
</g>
<defs>
<clipPath id="clip0_539_8028">
<rect width="97" height="38" fill="white"/>
</clipPath>
</defs>
</svg>
